<svg width="1050" height="359" viewBox="0 0 1050 359" fill="none" xmlns="http://www.w3.org/2000/svg">
<path d="M239.492 110.93L195.769 133.153C193.95 134.078 191.804 134.078 189.984 133.153L146.262 110.93L189.984 88.6937C191.804 87.7688 193.95 87.7688 195.769 88.6937L239.492 110.93Z" fill="#FFA336"/>
<path d="M192.886 229.525V271L122.966 235.445V265.068L100.892 253.845C92.9847 249.837 88 241.623 88 232.645V99.1675L110.074 110.39C117.969 114.411 122.954 122.612 122.954 131.59V193.97L192.886 229.525Z" fill="#FFA336"/>
<path d="M192.886 229.525V271L122.966 235.445V265.068L100.892 253.845C92.9847 249.837 88 241.623 88 232.645V99.1675L110.074 110.39C117.969 114.411 122.954 122.612 122.954 131.59V193.97L192.886 229.525Z" fill="#FFA336"/>
<path d="M192.886 229.525V271L122.966 235.445V265.068L100.892 253.845C92.9847 249.837 88 241.623 88 232.645V99.1675L110.074 110.39C117.969 114.411 122.954 122.612 122.954 131.59V193.97L192.886 229.525Z" fill="#FFA336"/>
<path d="M192.901 229.525V271L262.821 235.445V265.068L284.894 253.845C292.79 249.825 297.774 241.623 297.774 232.645V99.1675L275.701 110.39C267.805 114.411 262.821 122.612 262.821 131.59V193.97L192.901 229.525Z" fill="#F98F26"/>
<path d="M239.51 128.748V182.074L192.901 205.778V152.451L239.51 128.748Z" fill="#F98F26"/>
<path d="M192.883 152.451V205.778L146.262 182.074V128.748L192.883 152.451Z" fill="#FBBF5B"/>
<g clip-path="url(#clip0)">
<path d="M341.794 136.464H366.409L390.375 196.319L414.105 136.464H438.542V222.941H417.705V171.055L398.58 222.882H381.816L362.573 170.937V222.882H341.794V136.464Z" fill="#606263"/>
<path d="M508.786 153.346H477.265V170.819H505.126V187.051H477.265V206.059H508.786V222.941H456.428V136.464H508.786V153.346Z" fill="#606263"/>
<path d="M526.613 136.464H547.45V188.173C547.45 198.385 552.467 204.288 562.325 204.288C572.183 204.288 577.437 198.385 577.437 188.173V136.464H598.274V188.055C598.274 211.962 581.746 223.767 562.03 223.767C542.196 223.767 526.731 211.962 526.731 188.055V136.464H526.613Z" fill="#606263"/>
<path d="M663.441 136.464V206.649H695.14V222.882H642.663V136.464H663.441Z" fill="#606263"/>
<path d="M769.575 207.652H737.699L732.564 222.941H710.782L741.713 136.464H765.797L796.728 222.941H774.71L769.575 207.652ZM753.637 159.721L743.189 191.36H764.262L753.637 159.721Z" fill="#606263"/>
<path d="M853.219 222.882H813.434V136.464H851.92C869.333 136.464 879.663 145.2 879.663 158.895C879.663 169.343 873.465 176.131 865.201 178.61C875.177 180.676 881.611 189.59 881.611 199.447C881.552 213.673 871.222 222.882 853.219 222.882ZM847.847 153.346H834.212V171.468H847.847C854.635 171.468 858.413 168.398 858.413 162.495C858.413 156.593 854.694 153.346 847.847 153.346ZM849.323 186.815H834.212V205.882H849.559C856.524 205.882 860.538 202.694 860.538 196.496C860.538 190.298 856.288 186.815 849.323 186.815Z" fill="#606263"/>
<path d="M930.428 223.767C912.07 223.767 897.667 214.559 897.077 197.028H919.213C919.803 203.698 923.935 206.885 929.779 206.885C935.859 206.885 939.755 203.816 939.755 198.739C939.755 182.743 897.018 191.361 897.254 160.666C897.254 144.315 910.536 135.166 928.421 135.166C947.015 135.166 959.589 144.551 960.415 161.02H937.984C937.63 155.471 933.734 152.166 928.126 152.048C923.109 151.93 919.39 154.527 919.39 159.958C919.39 175.01 961.655 168.222 961.655 197.146C961.596 211.726 950.38 223.767 930.428 223.767Z" fill="#606263"/>
</g>
<defs>
<clipPath id="clip0">
<rect width="619.801" height="88.5429" fill="white" transform="translate(341.794 135.225)"/>
</clipPath>
</defs>
</svg>
